<svg width="90" height="36" viewBox="0 0 90 36" fill="none" xmlns="http://www.w3.org/2000/svg">
<path d="M13.31 14L19.05 23.94M8.69 14H20.17M6.38 18L12.12 8.06M8.69001 22L2.95001 12.06M13.31 22H1.82999M15.62 18L9.88 27.94M21 18C21 23.5228 16.5228 28 11 28C5.47715 28 1 23.5228 1 18C1 12.4772 5.47715 8 11 8C16.5228 8 21 12.4772 21 18Z" stroke="white" stroke-width="2" stroke-linecap="round" stroke-linejoin="round"/>
<path d="M43.52 14.12C43.056 13.144 42.384 12.392 41.504 11.864C40.624 11.32 39.6 11.048 38.432 11.048C37.264 11.048 36.208 11.32 35.264 11.864C34.336 12.392 33.6 13.16 33.056 14.168C32.528 15.16 32.264 16.312 32.264 17.624C32.264 18.936 32.528 20.088 33.056 21.08C33.6 22.072 34.336 22.84 35.264 23.384C36.208 23.912 37.264 24.176 38.432 24.176C40.064 24.176 41.408 23.688 42.464 22.712C43.52 21.736 44.136 20.416 44.312 18.752H37.64V16.976H46.64V18.656C46.512 20.032 46.08 21.296 45.344 22.448C44.608 23.584 43.64 24.488 42.44 25.16C41.24 25.816 39.904 26.144 38.432 26.144C36.88 26.144 35.464 25.784 34.184 25.064C32.904 24.328 31.888 23.312 31.136 22.016C30.4 20.72 30.032 19.256 30.032 17.624C30.032 15.992 30.4 14.528 31.136 13.232C31.888 11.92 32.904 10.904 34.184 10.184C35.464 9.448 36.88 9.08 38.432 9.08C40.208 9.08 41.776 9.52 43.136 10.4C44.512 11.28 45.512 12.52 46.136 14.12H43.52ZM50.6557 10.712C50.2397 10.712 49.8877 10.568 49.5997 10.28C49.3117 9.992 49.1677 9.64 49.1677 9.224C49.1677 8.808 49.3117 8.456 49.5997 8.168C49.8877 7.88 50.2397 7.736 50.6557 7.736C51.0557 7.736 51.3917 7.88 51.6637 8.168C51.9517 8.456 52.0957 8.808 52.0957 9.224C52.0957 9.64 51.9517 9.992 51.6637 10.28C51.3917 10.568 51.0557 10.712 50.6557 10.712ZM51.7117 12.848V26H49.5277V12.848H51.7117ZM67.4579 14.432C67.4579 15.328 67.2419 16.168 66.8099 16.952C66.3939 17.736 65.7299 18.368 64.8179 18.848C63.9219 19.328 62.7859 19.568 61.4099 19.568H58.6019V26H55.2419V9.248H61.4099C62.7059 9.248 63.8099 9.472 64.7219 9.92C65.6339 10.368 66.3139 10.984 66.7619 11.768C67.2259 12.552 67.4579 13.44 67.4579 14.432ZM61.2659 16.856C62.1939 16.856 62.8819 16.648 63.3299 16.232C63.7779 15.8 64.0019 15.2 64.0019 14.432C64.0019 12.8 63.0899 11.984 61.2659 11.984H58.6019V16.856H61.2659ZM71.5475 11.12C70.9555 11.12 70.4595 10.936 70.0595 10.568C69.6755 10.184 69.4835 9.712 69.4835 9.152C69.4835 8.592 69.6755 8.128 70.0595 7.76C70.4595 7.376 70.9555 7.184 71.5475 7.184C72.1395 7.184 72.6275 7.376 73.0115 7.76C73.4115 8.128 73.6115 8.592 73.6115 9.152C73.6115 9.712 73.4115 10.184 73.0115 10.568C72.6275 10.936 72.1395 11.12 71.5475 11.12ZM73.2035 12.704V26H69.8435V12.704H73.2035ZM75.6592 19.352C75.6592 17.976 75.9392 16.776 76.4992 15.752C77.0592 14.712 77.8352 13.912 78.8272 13.352C79.8192 12.776 80.9552 12.488 82.2352 12.488C83.8832 12.488 85.2432 12.904 86.3152 13.736C87.4032 14.552 88.1312 15.704 88.4992 17.192H84.8752C84.6832 16.616 84.3552 16.168 83.8912 15.848C83.4432 15.512 82.8832 15.344 82.2112 15.344C81.2512 15.344 80.4912 15.696 79.9312 16.4C79.3712 17.088 79.0912 18.072 79.0912 19.352C79.0912 20.616 79.3712 21.6 79.9312 22.304C80.4912 22.992 81.2512 23.336 82.2112 23.336C83.5712 23.336 84.4592 22.728 84.8752 21.512H88.4992C88.1312 22.952 87.4032 24.096 86.3152 24.944C85.2272 25.792 83.8672 26.216 82.2352 26.216C80.9552 26.216 79.8192 25.936 78.8272 25.376C77.8352 24.8 77.0592 24 76.4992 22.976C75.9392 21.936 75.6592 20.728 75.6592 19.352Z" fill="white"/>
</svg>
